<svg width="66" height="66" viewBox="0 0 66 66" fill="none" xmlns="http://www.w3.org/2000/svg">
<path d="M48.5915 3.25537H16.675C9.13246 3.25537 3.01807 9.36977 3.01807 16.9123V48.8288C3.01807 56.3713 9.13246 62.4857 16.675 62.4857H48.5915C56.134 62.4857 62.2484 56.3713 62.2484 48.8288V16.9123C62.2484 9.36977 56.134 3.25537 48.5915 3.25537Z" fill="white"/>
<path d="M42.1852 14.9407C44.4337 14.9497 46.5876 15.847 48.1775 17.4369C49.7675 19.0269 50.6647 21.1807 50.6738 23.4293V42.3117C50.6647 44.5603 49.7675 46.7141 48.1775 48.3041C46.5876 49.894 44.4337 50.7913 42.1852 50.8003H23.0811C20.8326 50.7913 18.6787 49.894 17.0888 48.3041C15.4988 46.7141 14.6016 44.5603 14.5925 42.3117V23.4293C14.6016 21.1807 15.4988 19.0269 17.0888 17.4369C18.6787 15.847 20.8326 14.9497 23.0811 14.9407H42.1852ZM42.1852 10.9925H23.0811C16.2406 10.9925 10.6431 16.5964 10.6431 23.4305V42.3117C10.6431 49.1523 16.2469 54.7498 23.0811 54.7498H42.1852C49.0258 54.7498 54.6233 49.1459 54.6233 42.3117V23.4293C54.6233 16.5887 49.0258 10.9912 42.1852 10.9912V10.9925Z" fill="#5606BA"/>
<path d="M32.6332 25.5002C34.091 25.5002 35.5159 25.9324 36.728 26.7423C37.94 27.5522 38.8847 28.7033 39.4426 30.05C40.0004 31.3968 40.1464 32.8787 39.862 34.3084C39.5776 35.7381 38.8756 37.0514 37.8449 38.0822C36.8141 39.1129 35.5008 39.8149 34.0711 40.0993C32.6414 40.3837 31.1595 40.2377 29.8127 39.6799C28.466 39.122 27.3149 38.1773 26.505 36.9653C25.6951 35.7532 25.2629 34.3283 25.2629 32.8705C25.2652 30.9165 26.0425 29.0432 27.4242 27.6615C28.8059 26.2798 30.6792 25.5025 32.6332 25.5002ZM32.6332 21.552C30.3946 21.552 28.2063 22.2158 26.345 23.4595C24.4837 24.7032 23.0329 26.4709 22.1763 28.5391C21.3196 30.6073 21.0955 32.8831 21.5322 35.0787C21.9689 37.2743 23.0469 39.291 24.6298 40.874C26.2128 42.4569 28.2295 43.5349 30.4251 43.9716C32.6207 44.4083 34.8965 44.1842 36.9647 43.3275C39.0329 42.4708 40.8006 41.0201 42.0443 39.1588C43.288 37.2975 43.9518 35.1091 43.9518 32.8705C43.9518 29.8687 42.7593 26.9898 40.6367 24.8671C38.514 22.7445 35.6351 21.552 32.6332 21.552Z" fill="#5606BA"/>
<path d="M44.1987 23.7387C45.6808 23.7387 46.8822 22.5372 46.8822 21.0552C46.8822 19.5731 45.6808 18.3717 44.1987 18.3717C42.7167 18.3717 41.5153 19.5731 41.5153 21.0552C41.5153 22.5372 42.7167 23.7387 44.1987 23.7387Z" fill="#5606BA"/>
</svg>
