<svg width="30" height="30" viewBox="0 0 30 30" fill="none" xmlns="http://www.w3.org/2000/svg">
<path fill-rule="evenodd" clip-rule="evenodd" d="M15.0238 29.9524C23.2949 29.9524 30 23.2473 30 14.9762C30 6.70507 23.2949 0 15.0238 0C6.75268 0 0.0476074 6.70507 0.0476074 14.9762C0.0476074 23.2473 6.75268 29.9524 15.0238 29.9524ZM10.5238 11H6.5238V22H10.5238V11ZM23.282 11.3433C22.4543 10.4478 21.3596 10 19.9985 10C19.4971 10 19.0412 10.0611 18.6312 10.1835C18.2213 10.3058 17.8751 10.4774 17.5925 10.6983C17.31 10.9192 17.085 11.1243 16.9179 11.3136C16.7591 11.4934 16.6038 11.7028 16.4522 11.9397V10.272H12.5238L12.5358 10.8401C12.5439 11.219 12.5479 12.3865 12.5479 14.3431C12.5479 16.2998 12.5399 18.852 12.524 22H16.4522V15.4554C16.4522 15.0531 16.4958 14.7337 16.5835 14.4968C16.7508 14.0942 17.0033 13.7572 17.3418 13.4851C17.6802 13.2127 18.1 13.0766 18.6016 13.0766C19.286 13.0766 19.7896 13.3113 20.1121 13.7807C20.4344 14.2501 20.5955 14.8991 20.5955 15.7275V21.9996H24.5238V15.2781C24.5235 13.5501 24.1099 12.2386 23.282 11.3433ZM7.08052 5.56731C7.45177 5.18923 7.93639 5 8.53449 5C9.13263 5 9.61206 5.18906 9.97226 5.56731C10.3325 5.94547 10.5164 6.42294 10.5236 7.00004C10.5308 7.56927 10.3488 8.0449 9.97772 8.42687C9.60661 8.80905 9.11828 9 8.51284 9H8.49121C7.90027 9 7.42455 8.80889 7.06431 8.42687C6.70396 8.0449 6.5238 7.56911 6.5238 7.00004C6.5238 6.4229 6.7093 5.94547 7.08052 5.56731Z" fill="white"/>
</svg>
