<svg width="82" height="88" viewBox="0 0 82 88" fill="none" xmlns="http://www.w3.org/2000/svg">
<path d="M76.2 35.5438C75.0312 35.5438 73.9484 35.9219 73.0546 36.5406C72.264 31.0578 70.1156 26.0219 66.9359 21.7938C68.0187 21.6047 69.0499 21.1063 69.875 20.2641C72.075 18.0641 72.075 14.4891 69.875 12.2891C67.6749 10.0891 64.1 10.0891 61.9171 12.2891C61.075 13.1313 60.5937 14.1625 60.3875 15.2281C56.1421 12.0484 51.1062 9.9 45.6406 9.10938C46.2593 8.21562 46.6375 7.13281 46.6375 5.96406C46.6375 2.87031 44.1109 0.34375 41 0.34375C37.889 0.34375 35.3624 2.87031 35.3624 5.98125C35.3624 7.15 35.7406 8.23281 36.3593 9.12656C30.8765 9.91719 25.8406 12.0656 21.6124 15.2453C21.4234 14.1625 20.925 13.1312 20.0828 12.3062C17.8828 10.1062 14.3078 10.1062 12.1078 12.3062C9.90776 14.5062 9.90776 18.0812 12.1078 20.2812C12.95 21.1234 13.9812 21.6047 15.0468 21.8109C11.8671 26.0562 9.7187 31.0922 8.92808 36.5578C8.03433 35.9391 6.95151 35.5609 5.78276 35.5609C2.67183 35.5609 0.145264 38.0875 0.145264 41.1984C0.145264 44.3094 2.67183 46.8359 5.78276 46.8359C6.95151 46.8359 8.03433 46.4578 8.92808 45.8391C9.7187 51.3219 11.8671 56.3578 15.0468 60.5859C13.964 60.775 12.9328 61.2734 12.1078 62.1156C9.90776 64.3156 9.90776 67.8906 12.1078 70.0734C14.3078 72.2734 17.8828 72.2734 20.0828 70.0734C20.925 69.2313 21.4062 68.2 21.6124 67.1344C23.4343 68.5094 25.4281 69.6781 27.525 70.6406L21.75 84.8375H15.6656V87.6562H66.3687V84.8375H60.25L54.475 70.6234C56.5718 69.6609 58.5484 68.4922 60.3875 67.1172C60.5765 68.2 61.075 69.2313 61.9171 70.0563C64.1171 72.2562 67.6921 72.2562 69.875 70.0563C72.075 67.8563 72.075 64.2812 69.875 62.0984C69.0328 61.2562 68.0015 60.775 66.9359 60.5687C70.1156 56.3234 72.264 51.2875 73.0546 45.8219C73.9484 46.4406 75.0312 46.8187 76.2 46.8187C79.3109 46.8187 81.8375 44.2922 81.8375 41.1813C81.8375 38.0703 79.3109 35.5438 76.2 35.5438ZM62.8453 61.05L44.4031 42.5906H70.5109C70.1671 49.6891 67.3312 56.1172 62.8453 61.05ZM43.8187 76.3984C43.8187 77.9453 42.564 79.2172 41 79.2172C39.4531 79.2172 38.1812 77.9625 38.1812 76.3984C38.1812 74.8516 39.4359 73.5797 41 73.5797C42.5468 73.5797 43.8187 74.8344 43.8187 76.3984ZM19.1546 61.05C14.6687 56.1172 11.8328 49.6891 11.5062 42.6078H37.614L19.1546 61.05ZM19.1546 21.3297L37.5968 39.7719H11.5062C11.8328 32.6906 14.6687 26.2453 19.1546 21.3297ZM60.8515 19.3359L42.4093 37.7781V11.6875C49.4906 12.0141 55.9359 14.85 60.8515 19.3359ZM21.1484 19.3359C26.0812 14.85 32.5093 12.0141 39.5906 11.6875V37.7953L21.1484 19.3359ZM39.5906 70.6922C36.6687 70.5547 33.8499 69.9875 31.2031 69.0594L39.5906 48.4V70.6922ZM42.4093 70.6922V48.3828L50.7968 69.0594C48.15 69.9875 45.3312 70.5547 42.4093 70.6922ZM44.4031 39.7719L62.8453 21.3297C67.3312 26.2625 70.1671 32.6906 70.4937 39.7719H44.4031ZM63.9109 14.3C65.0109 13.2 66.7984 13.2 67.8984 14.3C68.9984 15.4 68.9984 17.1875 67.8984 18.2875C66.7984 19.3875 65.0109 19.3875 63.9109 18.2875C62.8109 17.1875 62.8109 15.4 63.9109 14.3ZM38.1812 5.98125C38.1812 4.43437 39.4359 3.1625 41 3.1625C42.5468 3.1625 43.8187 4.41719 43.8187 5.98125C43.8187 7.54531 42.5468 8.8 41 8.8C39.4531 8.8 38.1812 7.52812 38.1812 5.98125ZM14.1187 14.3C15.2187 13.2 17.0062 13.2 18.1062 14.3C19.2062 15.4 19.2062 17.1875 18.1062 18.2875C17.0062 19.3875 15.2187 19.3875 14.1187 18.2875C13.0187 17.1875 13.0187 15.4 14.1187 14.3ZM5.79995 44C4.25308 44 2.9812 42.7453 2.9812 41.1813C2.9812 39.6344 4.23589 38.3625 5.79995 38.3625C7.34683 38.3625 8.6187 39.6172 8.6187 41.1813C8.60151 42.7453 7.34683 44 5.79995 44ZM18.089 68.0625C16.989 69.1625 15.2015 69.1625 14.1015 68.0625C13.0015 66.9625 13.0015 65.175 14.1015 64.075C15.2015 62.975 16.989 62.975 18.089 64.075C19.189 65.1922 19.189 66.9797 18.089 68.0625ZM21.1484 63.0266L37.0812 47.0938L28.5906 67.9938C25.8578 66.7219 23.3484 65.0375 21.1484 63.0266ZM57.2078 84.8375H24.775L30.1203 71.6891C32.114 72.4109 34.2109 72.9266 36.3593 73.2359C35.7406 74.1297 35.3624 75.2125 35.3624 76.3812C35.3624 79.4922 37.889 82.0188 41 82.0188C44.1109 82.0188 46.6375 79.4922 46.6375 76.3812C46.6375 75.2125 46.2593 74.1297 45.6406 73.2359C47.789 72.9266 49.8859 72.4109 51.8796 71.6891L57.2078 84.8375ZM44.9187 47.0938L60.8515 63.0266C58.6515 65.0375 56.1421 66.7047 53.4093 67.9766L44.9187 47.0938ZM67.8812 68.0625C66.7812 69.1625 64.9937 69.1625 63.8937 68.0625C62.7937 66.9625 62.7937 65.175 63.8937 64.075C64.9937 62.975 66.7812 62.975 67.8812 64.075C68.9812 65.1922 68.9812 66.9797 67.8812 68.0625ZM76.2 44C74.6531 44 73.3812 42.7453 73.3812 41.1813C73.3812 39.6344 74.6359 38.3625 76.2 38.3625C77.7468 38.3625 79.0187 39.6172 79.0187 41.1813C79.0187 42.7453 77.764 44 76.2 44Z" fill="#5705BA"/>
</svg>
