<svg width="31" height="30" viewBox="0 0 31 30" fill="none" xmlns="http://www.w3.org/2000/svg">
<path fill-rule="evenodd" clip-rule="evenodd" d="M15.0714 29.9524C23.3425 29.9524 30.0476 23.2473 30.0476 14.9762C30.0476 6.70507 23.3425 0 15.0714 0C6.80028 0 0.0952148 6.70507 0.0952148 14.9762C0.0952148 23.2473 6.80028 29.9524 15.0714 29.9524ZM22.5737 7L16.6174 13.7749H16.617L23.0952 23H18.3308L13.9684 16.7878L8.50676 23H7.09521L13.3418 15.8955L7.09521 7H11.8596L15.9904 12.8826L21.1623 7H22.5737ZM14.0512 15.0881L14.6841 15.9738V15.9742L18.9949 22.0075H21.1629L15.8803 14.6137L15.2474 13.728L11.1834 8.03974H9.01536L14.0512 15.0881Z" fill="white"/>
</svg>
