<svg width="26" height="19" viewBox="0 0 26 19" fill="none" xmlns="http://www.w3.org/2000/svg">
<g clip-path="url(#clip0_35_613)">
<rect y="0.5" width="25.2" height="18" rx="3.6" fill="white"/>
<path fill-rule="evenodd" clip-rule="evenodd" d="M0 0.5H10.8V8.9H0V0.5Z" fill="#B3B9C4"/>
<path fill-rule="evenodd" clip-rule="evenodd" d="M10.8 0.5V1.7H25.2V0.5H10.8ZM10.8 2.9V4.1H25.2V2.9H10.8ZM10.8 5.3V6.5H25.2V5.3H10.8ZM10.8 7.7V8.9H25.2V7.7H10.8ZM0 10.1V11.3H25.2V10.1H0ZM0 12.5V13.7H25.2V12.5H0ZM0 14.9V16.1H25.2V14.9H0ZM0 17.3V18.5H25.2V17.3H0Z" fill="#B3B9C4"/>
<path fill-rule="evenodd" clip-rule="evenodd" d="M1.20001 1.69995V2.89995H2.40001V1.69995H1.20001ZM3.60001 1.69995V2.89995H4.80001V1.69995H3.60001ZM6.00001 1.69995V2.89995H7.20001V1.69995H6.00001ZM8.40001 1.69995V2.89995H9.60001V1.69995H8.40001ZM7.20001 2.89995V4.09995H8.40001V2.89995H7.20001ZM4.80001 2.89995V4.09995H6.00001V2.89995H4.80001ZM2.40001 2.89995V4.09995H3.60001V2.89995H2.40001ZM1.20001 4.09995V5.29995H2.40001V4.09995H1.20001ZM3.60001 4.09995V5.29995H4.80001V4.09995H3.60001ZM6.00001 4.09995V5.29995H7.20001V4.09995H6.00001ZM8.40001 4.09995V5.29995H9.60001V4.09995H8.40001ZM1.20001 6.49995V7.69995H2.40001V6.49995H1.20001ZM3.60001 6.49995V7.69995H4.80001V6.49995H3.60001ZM6.00001 6.49995V7.69995H7.20001V6.49995H6.00001ZM8.40001 6.49995V7.69995H9.60001V6.49995H8.40001ZM7.20001 5.29995V6.49995H8.40001V5.29995H7.20001ZM4.80001 5.29995V6.49995H6.00001V5.29995H4.80001ZM2.40001 5.29995V6.49995H3.60001V5.29995H2.40001Z" fill="white"/>
</g>
<defs>
<clipPath id="clip0_35_613">
<rect y="0.5" width="25.2" height="18" rx="3.6" fill="white"/>
</clipPath>
</defs>
</svg>
