<svg width="26" height="19" viewBox="0 0 26 19" fill="none" xmlns="http://www.w3.org/2000/svg">
<rect x="0.799988" y="0.5" width="25.2" height="18" rx="3.6" fill="#249F58"/>
<path fill-rule="evenodd" clip-rule="evenodd" d="M20.0001 12.5001V11.3001H6.80011L9.20011 12.5001H16.4001C16.4001 13.1625 17.2065 13.7001 18.2001 13.7001C19.1937 13.7001 20.0001 13.1625 20.0001 12.5001ZM11.2761 5.18726C11.2617 5.18726 11.2401 5.19446 11.2125 5.21126C11.1477 5.25446 11.0205 5.38766 11.0157 5.54126C11.0121 5.62886 10.9953 5.62886 11.0517 5.68526C11.0925 5.74286 11.1357 5.73806 11.2173 5.69366C11.2653 5.65766 11.2809 5.63726 11.2977 5.57846C11.3169 5.48246 11.1933 5.62646 11.1777 5.51606C11.1501 5.41526 11.2293 5.37206 11.3037 5.27606C11.3061 5.22806 11.3061 5.19206 11.2761 5.18966V5.18726ZM12.4797 5.19326C12.4557 5.19806 12.4281 5.22926 12.3885 5.29886C12.3609 5.37326 12.2397 5.48606 12.3285 5.71886C12.3981 5.86646 12.4281 6.10526 12.3957 6.37286C12.3453 6.44846 12.3357 6.47486 12.2697 6.55046C12.1785 6.65006 12.0777 6.62486 12.0033 6.58646C11.9313 6.53846 11.8761 6.51446 11.8437 6.36326C11.8497 6.12326 11.8641 5.72486 11.8197 5.64086C11.7549 5.51126 11.6469 5.55686 11.6013 5.59646C11.3817 5.80046 11.2725 6.14006 11.2053 6.41246C11.1453 6.60926 11.0793 6.55166 11.0337 6.47246C10.9221 6.36686 10.9137 5.54846 10.7793 5.68406C10.5633 6.30086 10.9029 6.97646 11.1393 6.91046C11.3073 6.98246 11.4153 6.65846 11.4849 6.30446C11.5329 6.20486 11.5689 6.19286 11.5929 6.24446C11.5869 6.71486 11.6289 6.82046 11.7489 6.96206C12.0177 7.17086 12.2409 6.98846 12.2589 6.97166L12.4689 6.76286C12.5169 6.71486 12.5769 6.71006 12.6429 6.75326C12.7077 6.81326 12.6993 6.91286 12.8349 6.98126C12.9525 7.02926 13.1985 6.99326 13.2549 6.89366C13.3329 6.76166 13.3509 6.71606 13.3869 6.66566C13.4421 6.59366 13.5369 6.62606 13.5369 6.64886C13.5285 6.69086 13.4733 6.73286 13.5105 6.80486C13.5765 6.85286 13.5921 6.82166 13.6305 6.81086C13.7673 6.74606 13.8705 6.44846 13.8705 6.44846C13.8765 6.33806 13.8141 6.34646 13.7745 6.36926C13.7205 6.40166 13.7181 6.41246 13.6665 6.44486C13.5981 6.45446 13.4685 6.49886 13.4049 6.39926C13.3389 6.27926 13.3389 6.11366 13.2885 5.99126C13.2885 5.98406 13.2009 5.80286 13.2813 5.79206C13.3209 5.79926 13.4097 5.82206 13.4229 5.74886C13.4661 5.67686 13.3305 5.47286 13.2381 5.37206C13.1589 5.28446 13.0485 5.27366 12.9417 5.36246C12.8661 5.43206 12.8781 5.50886 12.8625 5.58206C12.8445 5.66606 12.8481 5.77046 12.9345 5.88206C13.0089 6.02846 13.1445 6.21806 13.0989 6.48446C13.0989 6.48446 13.0209 6.61166 12.8829 6.59486C12.8229 6.58286 12.7293 6.55886 12.6789 6.18686C12.6429 5.90726 12.6885 5.51486 12.5709 5.33126C12.5433 5.26286 12.5205 5.19566 12.4821 5.19926L12.4797 5.19326ZM12.0981 5.22446C12.0621 5.22806 12.0225 5.27006 11.9901 5.35046C11.9625 5.41286 11.9277 5.73446 11.9337 5.73446C11.9097 5.83046 12.0333 5.87126 12.0897 5.74886C12.1737 5.52086 12.1737 5.42486 12.1785 5.33126C12.1665 5.25926 12.1341 5.22326 12.0981 5.22566V5.22446ZM13.5057 5.24846C13.4697 5.25326 13.4397 5.27486 13.4289 5.33006C13.4133 5.45726 13.4217 5.52806 13.4433 5.63486C13.4589 5.70686 13.5633 5.82446 13.6137 5.89406C13.8573 6.22166 14.0937 6.55046 14.3193 6.89006C14.3553 7.14446 14.3793 7.39166 14.3973 7.63886C14.4357 8.17886 14.4453 8.85086 14.4129 9.42086C14.5137 9.42446 14.6769 9.25646 14.7333 9.01286C14.7693 8.67206 14.7213 7.98086 14.7165 7.77926L14.7045 7.49366C14.9685 7.92566 15.2229 8.38166 15.4725 8.88086C15.5649 8.83766 15.5445 8.32286 15.4917 8.25086C15.2901 7.81886 15.0117 7.39166 14.9241 7.22726C14.8917 7.16726 14.7825 7.00286 14.6541 6.81206C14.6301 6.53846 14.6037 6.30806 14.5869 6.23846C14.5449 5.95046 14.7045 6.27086 14.6829 6.10406C14.6301 5.81606 14.4717 5.62166 14.2845 5.35766C14.2245 5.27366 14.2245 5.25446 14.1321 5.37926C14.0781 5.50526 14.0781 5.61086 14.0961 5.70926C14.0697 5.67326 14.0397 5.63246 13.9965 5.57966L13.6905 5.32046C13.6485 5.29046 13.5669 5.24486 13.5057 5.24846ZM17.6769 5.29286C17.6589 5.29046 17.6409 5.29886 17.6169 5.33126C17.5749 5.36726 17.5305 5.43566 17.5329 5.52326C17.5413 5.67326 17.5689 5.82806 17.5785 5.97926L17.5905 6.03926C17.5737 6.02006 17.5593 6.00326 17.5509 5.99606C17.2545 5.68406 17.6865 5.94326 17.4933 5.70446C17.3313 5.52446 17.2833 5.46926 17.1453 5.36126C17.0733 5.31806 17.0325 5.23166 17.0097 5.37806C17.0001 5.50646 16.9905 5.65646 16.9977 5.76446C16.9977 5.82446 17.0613 5.93846 17.1153 6.00446C17.3121 6.24806 17.5137 6.50606 17.7153 6.77486C17.7585 7.32326 17.7693 7.82606 17.8113 8.37566C17.8065 8.61086 17.7345 8.92286 17.6673 8.95166C17.6673 8.95166 17.5617 9.01166 17.4921 8.94566C17.4405 8.92526 17.2377 8.60606 17.2377 8.60606C17.1333 8.51006 17.0637 8.53766 16.9905 8.60606C16.7865 8.80286 16.6929 9.17246 16.5549 9.42686C16.5189 9.48326 16.4193 9.53246 16.3077 9.42206C16.0233 9.03326 16.1877 8.48006 16.1541 8.62286C15.9021 8.90846 16.0125 9.38126 16.0701 9.48326C16.1541 9.65126 16.2213 9.75926 16.3821 9.83966C16.5321 9.94766 16.6461 9.88166 16.7109 9.80366C16.8597 9.65006 16.8621 9.25526 16.9317 9.17726C16.9797 9.03326 17.1033 9.05726 17.1633 9.12206C17.2233 9.20606 17.2905 9.26006 17.3757 9.30566C17.5149 9.42806 17.6805 9.44966 17.8437 9.33806C17.9553 9.27566 18.0285 9.19406 18.0933 9.03326C18.1653 8.84606 18.1293 7.86206 18.1137 7.31486L18.4257 7.76606C18.4689 8.24606 18.4893 8.72006 18.4737 9.17366C18.4641 9.26366 18.7893 8.90486 18.7857 8.73446C18.7857 8.58686 18.7881 8.45126 18.7857 8.32646C18.9453 8.57846 19.0977 8.83406 19.2417 9.09446C19.3317 9.04646 19.3017 8.53886 19.2453 8.47046C19.0941 8.21606 18.8997 7.94246 18.7497 7.72886C18.7197 7.46126 18.6801 7.14566 18.6609 7.04846C18.6333 6.89726 18.6045 6.67046 18.5613 6.49166C18.5493 6.42326 18.5133 6.20006 18.5253 6.17966C18.5421 6.12806 18.6093 6.17966 18.6417 6.12206C18.6897 6.06806 18.4713 5.49806 18.3597 5.33726C18.3201 5.26526 18.2469 5.28926 18.1581 5.40926C18.0741 5.48606 18.1053 5.66366 18.1365 5.83286C18.2181 6.26486 18.2925 6.70166 18.3501 7.14086C18.2421 6.97886 18.1101 6.78446 17.9805 6.59846L17.9637 6.51446C17.9637 6.50486 17.9469 6.16046 17.9313 6.07886C17.9277 6.04526 17.9193 6.03566 17.9553 6.04046C17.9913 6.07166 17.9961 6.07286 18.0189 6.08366C18.0573 6.08846 18.0909 6.02606 18.0669 5.96726L17.7189 5.32646C17.7069 5.31086 17.6901 5.29646 17.6709 5.29406L17.6769 5.29286ZM6.91291 5.30486C6.84691 5.30246 6.77731 5.34086 6.80491 5.41886C6.78811 5.46086 6.92971 5.60246 6.95491 5.68046C6.97531 5.73686 6.93091 5.91446 6.97891 5.93246C7.02091 5.95046 7.07971 5.80766 7.10131 5.67686C7.11331 5.60486 7.10491 5.35766 6.93691 5.30726C6.92851 5.30486 6.92011 5.30486 6.91051 5.30366L6.91291 5.30486ZM19.1769 5.30486C19.1613 5.30726 19.1433 5.32886 19.1169 5.38886C19.0509 5.49686 19.0281 5.68886 19.0545 5.85686C19.2105 6.92486 19.3305 7.95926 19.3545 8.90486C19.3401 8.99606 19.3353 9.04406 19.2945 9.15686C19.2009 9.27686 19.0977 9.42566 19.0005 9.49766C18.9045 9.56966 18.6981 9.63926 18.6309 9.69206C18.4149 9.81446 18.4149 9.95606 18.5877 9.96206C18.8853 9.92606 19.2381 9.90206 19.4805 9.53606C19.5453 9.43406 19.6221 9.15566 19.6245 8.98406C19.6485 7.98806 19.6125 7.01006 19.4625 6.28886C19.4529 6.21686 19.4217 6.05726 19.4337 6.03686C19.4517 5.98646 19.5489 6.04046 19.5837 5.98406C19.6353 5.93126 19.3317 5.54366 19.2261 5.37806C19.2045 5.33726 19.1901 5.30246 19.1733 5.30606L19.1769 5.30486ZM16.0533 5.32166C16.0413 5.32406 16.0245 5.34326 15.9909 5.38766C15.9069 5.65886 15.8781 5.87966 15.9105 6.05006C16.1265 7.16606 16.3425 8.18006 16.3089 9.24206C16.4097 9.24206 16.5273 9.01046 16.5777 8.78006C16.6053 8.46206 16.5585 8.26886 16.5513 8.08406C16.5429 7.89686 16.3401 6.38486 16.2993 6.24446C16.2489 5.97806 16.4961 6.20846 16.4697 6.05486C16.3833 5.85806 16.1697 5.57486 16.1049 5.40326C16.0809 5.35766 16.0761 5.31566 16.0569 5.31926L16.0533 5.32166ZM8.45251 5.34326C8.42851 5.34806 8.40091 5.36966 8.39251 5.40326C8.38651 5.42726 8.40211 5.46686 8.38051 5.47886C8.36851 5.49086 8.32291 5.48246 8.32531 5.41886C8.32531 5.39726 8.30971 5.37566 8.30131 5.36246C8.29171 5.35766 8.28571 5.35646 8.26891 5.35646C8.24851 5.35646 8.24851 5.36246 8.23771 5.38046C8.23291 5.39726 8.22571 5.41406 8.22571 5.43326C8.22331 5.45726 8.21371 5.46326 8.19811 5.46686C8.17891 5.46686 8.18251 5.46926 8.16811 5.45846C8.15611 5.45006 8.14651 5.44646 8.14651 5.42966C8.14651 5.41166 8.14171 5.38166 8.13691 5.37206C8.12851 5.36006 8.11531 5.35526 8.10091 5.35166C8.02171 5.35166 8.01691 5.44526 8.02051 5.47886C8.01451 5.48606 8.01211 5.64686 8.12011 5.69246C8.26411 5.76206 8.53771 5.73206 8.52811 5.49806C8.52811 5.47766 8.52211 5.40806 8.51971 5.39006C8.50531 5.35406 8.47771 5.34206 8.45131 5.34566L8.45251 5.34326ZM10.4037 5.34566C10.3533 5.34806 10.3077 5.36246 10.2717 5.38166C10.1757 5.47406 10.1517 5.62166 10.2285 5.71406C10.3005 5.75006 10.3761 5.82206 10.3269 5.86406C10.1181 6.08606 9.57451 6.45926 9.54691 6.52766V6.53486H9.55171V6.53726C9.57931 6.55526 9.92011 6.55526 9.95731 6.53726H9.95971C10.0773 6.49286 10.6317 5.85926 10.6317 5.85926C10.6029 5.83526 10.5765 5.81606 10.5477 5.79086C10.5165 5.76446 10.5201 5.73806 10.5477 5.71166C10.6845 5.63246 10.6413 5.45606 10.5693 5.37566C10.5093 5.34926 10.4541 5.33966 10.4037 5.34326V5.34566ZM15.5037 5.34566C15.4893 5.34926 15.4713 5.36966 15.4437 5.42966C15.3777 5.53766 15.3333 5.72366 15.3393 5.89766C15.4809 6.88166 15.5241 7.74206 15.6177 8.72606C15.6249 8.82206 15.6105 8.95886 15.5481 9.01406C15.3129 9.25886 14.9757 9.55886 14.6085 9.69806C14.5689 9.74246 14.7069 9.93086 14.8845 9.93086C15.1821 9.89486 15.4437 9.72926 15.6885 9.28886C15.7521 9.18686 15.8661 8.96726 15.8685 8.79686C15.8925 7.79846 15.8205 7.02086 15.6693 6.30086C15.6609 6.22886 15.6669 6.14486 15.6789 6.12566C15.6981 6.10166 15.7629 6.12566 15.7989 6.06926C15.8493 6.01646 15.6621 5.58566 15.5565 5.42126C15.5349 5.37926 15.5229 5.34566 15.5037 5.34686V5.34566ZM7.60291 5.37806C7.56211 5.38286 7.52371 5.41406 7.50451 5.46206C7.49851 5.61806 7.49731 5.77406 7.51651 5.92046C7.58851 6.17606 7.60891 6.40046 7.64371 6.66086C7.65571 7.01126 7.44211 6.81206 7.45171 6.63926C7.49971 6.41366 7.48771 6.05966 7.44451 5.96966C7.40851 5.87966 7.37011 5.85806 7.28611 5.87366C7.22011 5.86886 7.04851 6.05366 7.00051 6.36566C7.00051 6.36566 6.95971 6.52406 6.94291 6.66566C6.91891 6.82526 6.81331 6.93926 6.73891 6.64406C6.67531 6.42806 6.63691 5.90006 6.53011 6.02246C6.49891 6.43526 6.46291 7.16246 6.81331 7.23686C7.23811 7.27766 7.00291 6.51926 7.15651 6.38126C7.18651 6.31526 7.24051 6.31406 7.24411 6.39926V7.04366C7.23931 7.25246 7.37611 7.31486 7.48411 7.35806C7.59571 7.34966 7.66891 7.35326 7.71211 7.46126L7.76611 8.57726C7.76611 8.57726 8.02291 8.64926 8.03491 7.94966C8.04691 7.53806 7.95091 7.19366 8.00731 7.11326C8.00971 7.03406 8.11051 7.02926 8.18011 7.06886C8.29171 7.14686 8.34091 7.24286 8.51371 7.20446C8.77771 7.13246 8.93371 7.00526 8.93731 6.80366C8.92531 6.61166 8.90131 6.41966 8.81731 6.22766C8.82931 6.19406 8.76931 6.10406 8.78131 6.06926C8.82691 6.14126 8.89891 6.13646 8.91331 6.06926C8.87011 5.92166 8.80051 5.78126 8.68771 5.72126C8.59531 5.63726 8.45971 5.65526 8.40931 5.82566C8.38531 6.02246 8.48131 6.25526 8.62531 6.44606C8.65411 6.52046 8.69731 6.64406 8.67811 6.75566C8.60251 6.79886 8.52691 6.77966 8.46211 6.71366C8.46211 6.71366 8.25451 6.55766 8.25451 6.52166C8.31091 6.16766 8.26651 6.12566 8.23651 6.02966C8.21491 5.89286 8.15011 5.84966 8.09851 5.75606C8.04571 5.69966 7.97491 5.69966 7.94251 5.75606C7.84891 5.91566 7.89211 6.26006 7.95931 6.41246C8.00731 6.55406 8.08171 6.64286 8.04691 6.64286C8.01811 6.72086 7.95811 6.70286 7.91491 6.61046C7.85491 6.41846 7.84051 6.13526 7.84051 6.00686C7.82251 5.84846 7.80211 5.50886 7.69651 5.42246C7.66891 5.38406 7.63651 5.37086 7.60411 5.37446L7.60291 5.37806ZM9.09331 5.37806C9.07291 5.38286 9.04891 5.39486 9.02131 5.40206C8.93131 5.42966 8.84731 5.50766 8.87371 5.65886C8.98171 6.30686 9.05011 6.80246 9.15691 7.45046C9.17251 7.52726 9.10891 7.62686 9.02731 7.61846C8.88811 7.52246 8.85331 7.33046 8.61571 7.34006C8.44291 7.34006 8.24611 7.52966 8.22211 7.70966C8.19331 7.85366 8.18371 8.00966 8.22211 8.13446C8.34211 8.27846 8.48851 8.26406 8.61571 8.23046C8.72011 8.18846 8.80771 8.08646 8.84371 8.11046C8.86771 8.15006 8.84131 8.48726 8.35171 8.74646C8.04931 8.88326 7.80931 8.91446 7.67971 8.66966C7.60051 8.51606 7.68691 7.93046 7.49011 8.06486C6.90691 9.56726 8.85451 9.77606 9.07171 8.12726C9.08611 8.07926 9.12811 8.03366 9.15931 8.04566C9.17131 8.05166 9.18331 8.06966 9.18811 8.10326C9.14251 9.59606 7.68091 9.69926 7.43371 9.22886C7.37131 9.11846 7.35331 8.87126 7.34731 8.72486C7.33531 8.63486 7.31371 8.58326 7.28731 8.56286C7.22731 8.51846 7.14811 8.63486 7.13131 8.83526C7.10731 8.99726 7.11331 9.04166 7.11331 9.19766C7.19251 10.3773 9.07291 9.86966 9.37891 8.89766C9.53011 8.39366 9.37531 8.01326 9.42691 7.96646L9.43051 7.96406H9.43411L9.44011 7.96166C9.62731 8.16326 9.88891 7.98566 9.94651 7.91726C9.97051 7.88126 10.0329 7.85726 10.0761 7.90526C10.2201 8.00846 10.4769 7.95926 10.5297 7.77326C10.5609 7.59326 10.5873 7.40846 10.5933 7.21526C10.4973 7.24526 10.4205 7.26686 10.3893 7.29926C10.3821 7.30766 10.3773 7.31726 10.3749 7.32686L10.3509 7.48646C10.3509 7.49246 10.3485 7.49606 10.3461 7.49846C10.3425 7.50686 10.3341 7.51286 10.3293 7.51646C10.2957 7.53446 10.2369 7.52486 10.2333 7.47566C10.1889 7.27166 10.0029 7.24526 9.89011 7.56326C9.81451 7.62326 9.67411 7.63526 9.66211 7.54406C9.68011 7.33046 9.59371 7.30166 9.42211 7.40246L9.25651 6.15446C9.32851 6.15086 9.39331 6.20246 9.46051 6.12086C9.38851 5.90006 9.23851 5.45126 9.15331 5.40806H9.15091L9.13891 5.39606C9.13891 5.39366 9.13531 5.39246 9.13291 5.39126L9.12811 5.38406C9.12331 5.38406 9.11851 5.38166 9.11611 5.38046C9.10771 5.37806 9.10051 5.37806 9.09211 5.37806H9.09331ZM14.9037 5.38286C14.8293 5.38046 14.7477 5.42726 14.7789 5.52086C14.7597 5.57246 14.9385 5.74526 14.9673 5.83886C15.0189 5.98286 14.9277 6.12326 14.9817 6.14366C15.0321 6.16526 15.1017 5.99366 15.1257 5.83406C15.1569 5.70446 15.0657 5.44046 14.9337 5.38646L14.9037 5.38406V5.38286ZM10.3761 5.54006C10.4097 5.53766 10.4505 5.56886 10.4721 5.61206C10.4925 5.66006 10.4817 5.70446 10.4481 5.71286C10.4121 5.72126 10.3665 5.69126 10.3449 5.64326C10.3233 5.59526 10.3329 5.55086 10.3689 5.54246H10.3761V5.54006ZM18.7725 5.75846C18.7041 5.75606 18.6285 5.80646 18.6597 5.90846C18.6429 5.96366 18.8037 6.15086 18.8313 6.25406C18.8553 6.32606 18.7953 6.56126 18.8433 6.58286C18.8889 6.60686 18.9513 6.41966 18.9753 6.24686C18.9897 6.15086 18.9201 5.82086 18.8013 5.76206C18.7929 5.75966 18.7833 5.75726 18.7737 5.75726L18.7725 5.75846ZM14.1285 5.87366C14.1369 5.90126 14.1429 5.92886 14.1465 5.95766C14.1609 6.01766 14.1729 6.07766 14.1849 6.14006C14.1321 6.06566 14.0889 6.00566 14.0685 5.98406C13.9485 5.84006 14.0709 5.89046 14.1285 5.87366ZM15.2001 6.39926C15.1737 6.40406 15.1485 6.42686 15.1401 6.46286C15.1329 6.48446 15.1497 6.52286 15.1281 6.53486C15.1161 6.54686 15.0681 6.53966 15.0717 6.47486C15.0717 6.45326 15.0561 6.43046 15.0477 6.41846C15.0381 6.41246 15.0321 6.41006 15.0153 6.41006C14.9949 6.41006 14.9949 6.41606 14.9841 6.43406C14.9793 6.45086 14.9721 6.46766 14.9721 6.48806C14.9721 6.51206 14.9625 6.51926 14.9457 6.52406C14.9265 6.52406 14.9301 6.52406 14.9145 6.51566C14.9049 6.50366 14.8941 6.50126 14.8941 6.48446C14.8941 6.46646 14.8905 6.43886 14.8845 6.42686C14.8761 6.41486 14.8641 6.41126 14.8485 6.40646C14.7705 6.40646 14.7645 6.49766 14.7693 6.53126C14.7645 6.53846 14.7609 6.70166 14.8689 6.74726C15.0153 6.81566 15.2889 6.78326 15.2769 6.55046C15.2769 6.53006 15.2709 6.46046 15.2697 6.44246C15.2541 6.40646 15.2265 6.39446 15.2013 6.39806L15.2001 6.39926ZM10.3161 6.44726C10.2993 6.44726 10.2753 6.45206 10.2477 6.46886C10.1193 6.53846 10.0701 6.74486 10.1517 6.86486C10.2237 6.97286 10.3437 6.93326 10.3593 6.93326C10.4853 6.95006 10.5597 6.69806 10.5597 6.69806C10.5597 6.69806 10.5633 6.62606 10.4157 6.76046C10.3509 6.77246 10.3437 6.74846 10.3269 6.71246C10.3125 6.64886 10.3149 6.58046 10.3449 6.51686C10.3593 6.47726 10.3449 6.45206 10.3161 6.44966V6.44726ZM17.2197 6.47966C17.1477 6.47606 17.0721 6.52286 17.0517 6.62006C17.0517 6.67766 17.0781 6.70886 17.0733 6.76166C17.0673 6.79166 17.0373 6.80966 16.9629 6.77606C16.9749 6.76406 16.9149 6.68246 16.9149 6.68246C16.8585 6.64646 16.7829 6.68246 16.7325 6.71606C16.7049 6.76646 16.6845 6.85166 16.7157 6.93806C16.7973 7.09046 17.0793 7.34966 17.2137 7.35206C17.2161 7.21526 17.2293 7.03286 17.2377 6.92006C17.2401 6.87686 17.2497 6.83006 17.2917 6.81926C17.3325 6.80726 17.4033 6.86006 17.4033 6.81566C17.3961 6.72926 17.3793 6.59966 17.3313 6.53966C17.3049 6.50366 17.2629 6.48206 17.2209 6.47966H17.2197ZM11.5041 6.95606L11.5005 6.95966C11.5005 6.95966 11.4981 6.95966 11.4969 6.96206C11.4825 6.97406 11.4657 6.99806 11.4285 7.02206C11.3649 7.09406 11.3541 7.14566 11.3565 7.28966C11.3613 7.30526 11.4765 7.62926 11.5761 7.85606C11.6433 8.09246 11.7045 8.36366 11.6601 8.61926C11.5041 8.95766 11.1921 9.26126 10.8885 9.42686C10.7325 9.47486 10.6005 9.45806 10.5645 9.42446C10.4757 9.36446 10.4745 9.25646 10.4805 9.23966V9.23606C10.7349 9.05846 11.0265 8.91446 11.2545 8.43566C11.3217 8.25206 11.3433 8.14166 11.2761 7.85966C11.2497 7.75166 11.2161 7.66766 11.1441 7.59086H11.1465C11.1897 7.57046 11.3025 7.65326 11.3205 7.60286C11.2929 7.46606 11.2005 7.28486 11.0985 7.19126C11.0073 7.10726 10.9065 7.09886 10.8249 7.17446C10.7313 7.22726 10.7121 7.41446 10.7565 7.57766C10.8069 7.70006 10.9425 7.72166 11.0385 7.97006C11.0409 7.98686 11.0709 8.15606 11.0229 8.22566C10.9821 8.34806 10.4769 8.74646 10.4409 8.77046L10.4373 8.77286L10.4349 8.77526H10.4325H10.4301V8.77166C10.4277 8.76206 10.4301 8.73566 10.4301 8.69606C10.4265 8.62166 10.4577 8.45246 10.4541 8.42246V8.42006C10.2861 8.52806 10.2297 8.85806 10.1997 8.95646C9.77611 9.24806 9.29611 9.46526 9.01891 9.76046C8.87491 9.98846 10.0125 9.50366 10.1445 9.44486L10.1481 9.44846C10.1745 9.47606 10.1757 9.57206 10.2513 9.65966C10.3713 9.81926 10.6209 9.91766 10.8657 9.85646C11.2761 9.70886 11.5137 9.42926 11.7537 9.11846C11.7873 9.07046 11.8413 9.02966 11.8917 9.06806C12.0561 9.43766 12.5337 9.70166 13.1493 9.72806C13.2933 9.55526 13.2249 9.47006 13.1673 9.43406C13.1493 9.42206 12.8613 9.30926 12.8157 9.19766C12.7881 9.09446 12.8565 9.00206 12.9933 8.93366C13.3893 8.88566 13.7781 8.83166 14.1549 8.71046C14.1585 8.58326 14.2329 8.39486 14.2833 8.31206C14.3193 8.25566 14.3397 8.24966 14.3481 8.24246V8.24006H14.3505V8.23646V8.22446L14.2857 8.18606L13.0221 8.18126C13.0065 8.17526 12.9957 8.16926 12.9885 8.16326L12.9861 8.15966C12.9861 8.15966 12.9837 8.15966 12.9837 8.15726C12.9837 8.15486 12.9813 8.15486 12.9813 8.15486V8.15606V8.15366V8.15126V8.14886L12.9837 8.14526C12.9897 8.13806 13.0053 8.12966 13.0233 8.12126C13.3257 8.08166 13.8609 7.99406 13.8969 7.47926C13.8909 7.21046 13.7817 7.03526 13.4529 6.98726C13.2105 7.00526 13.0377 7.23926 13.0653 7.49606C13.0533 7.56446 13.0893 7.70006 13.0173 7.71566C12.5541 7.75886 12.0477 8.04926 12.0309 8.25806H12.0285H12.0261H12.0237C12.0237 8.26046 12.0213 8.26046 12.0201 8.26046H12.0153H12.0129H12.0081C11.9781 8.25086 11.9397 8.20046 11.9457 8.13206C11.9277 7.77206 11.8101 7.36406 11.6277 7.05206C11.5617 6.98606 11.5317 6.95966 11.5149 6.95606H11.5113H11.5077H11.5053H11.5041ZM12.7137 7.14566C12.6897 7.15046 12.6621 7.17206 12.6537 7.20806C12.6477 7.23206 12.6657 7.27046 12.6441 7.28246C12.6321 7.29446 12.5841 7.28726 12.5865 7.22246C12.5865 7.20206 12.5709 7.17926 12.5625 7.16606C12.5529 7.16006 12.5469 7.15886 12.5313 7.15886C12.5109 7.15886 12.5097 7.16366 12.4989 7.18046C12.4929 7.19726 12.4869 7.21646 12.4869 7.23446C12.4845 7.25846 12.4749 7.26566 12.4593 7.26806C12.4401 7.26806 12.4449 7.27166 12.4293 7.26206C12.4197 7.25246 12.4077 7.24766 12.4077 7.23086C12.4077 7.21286 12.4041 7.18286 12.3993 7.17086C12.3909 7.16246 12.3777 7.15886 12.3633 7.15406C12.2829 7.15406 12.2793 7.24406 12.2829 7.27886C12.2769 7.28486 12.2733 7.44686 12.3813 7.49246C12.5253 7.56206 12.8733 7.52126 12.7893 7.29686C12.7893 7.27646 12.7833 7.20686 12.7821 7.18886C12.7665 7.15286 12.7389 7.14086 12.7125 7.14446L12.7137 7.14566ZM17.5917 7.34606H17.5797C17.5797 7.34606 16.9053 7.82606 16.8897 7.84286C16.8225 7.90286 16.8561 8.11046 16.8897 8.08646C16.9377 8.10446 17.6157 7.64486 17.6025 7.59086C17.6325 7.59326 17.6469 7.35446 17.5905 7.34486L17.5917 7.34606ZM13.3509 7.41806C13.3773 7.41446 13.4133 7.42406 13.4469 7.44206C13.4985 7.47326 13.5309 7.51646 13.5249 7.55006V7.55486C13.5225 7.55486 13.5225 7.55486 13.5225 7.55726V7.55966C13.5225 7.55966 13.5201 7.55966 13.5201 7.56206C13.5201 7.56446 13.5165 7.56686 13.5141 7.56926C13.4901 7.59326 13.4349 7.58846 13.3821 7.55726C13.3317 7.52966 13.3017 7.48526 13.3041 7.45406V7.45046L13.3101 7.43846C13.3101 7.43846 13.3101 7.43606 13.3125 7.43486L13.3185 7.42766C13.3269 7.42166 13.3377 7.41566 13.3509 7.41566V7.41806ZM7.44931 7.53806C7.10131 7.54526 6.58891 7.99646 6.57571 8.24606L7.67971 7.71806C7.61971 7.62686 7.67611 7.54526 7.44931 7.53806ZM8.58091 7.69406C8.61451 7.69646 8.65051 7.71326 8.66971 7.76126C8.68651 7.80566 8.66971 7.85126 8.64931 7.87406V7.87766C8.63251 7.89686 8.58211 7.88966 8.54491 7.88966C8.50051 7.88726 8.47891 7.88006 8.45251 7.84406C8.43811 7.80206 8.47651 7.76246 8.49451 7.73366L8.50291 7.72166C8.51491 7.70966 8.53891 7.70006 8.56291 7.69766L8.57851 7.69526L8.58091 7.69406ZM17.4609 7.83446C17.3973 7.84166 17.3385 7.90046 17.3649 7.99406C17.3481 8.04926 17.4489 8.24246 17.4765 8.34446C17.5005 8.41646 17.4453 8.62406 17.4945 8.64446C17.5401 8.66846 17.6589 8.52446 17.6553 8.33966C17.6673 8.24366 17.6217 7.89566 17.5029 7.83806C17.4885 7.83446 17.4741 7.83326 17.4597 7.83446H17.4609ZM9.92011 8.17526C9.86491 8.17886 9.81571 8.20766 9.83851 8.28566C9.83491 8.34086 9.99451 8.40926 10.0029 8.53766C10.0245 8.59286 9.96691 8.76566 10.0149 8.78006C10.0581 8.79806 10.1181 8.66006 10.1409 8.53526C10.1529 8.46566 10.0857 8.22326 9.97291 8.17886C9.95491 8.17406 9.93691 8.17286 9.91891 8.17406L9.92011 8.17526ZM12.1761 8.48246H12.1905C12.3321 8.52086 12.5385 8.52566 12.7185 8.54246C12.8661 8.55446 12.9381 8.66726 12.8025 8.71646C12.6657 8.76206 12.5349 8.80046 12.5349 8.99486C12.5517 9.09086 12.5469 9.14126 12.5325 9.16286C12.5325 9.16646 12.5289 9.16886 12.5277 9.17006C12.5277 9.17006 12.5277 9.17246 12.5253 9.17246V9.17486H12.5217L12.5133 9.17846H12.5073C12.4749 9.18446 12.4281 9.15446 12.3933 9.13526C12.3093 9.07526 12.0753 8.93126 12.0417 8.61926C12.0369 8.54726 12.0897 8.48726 12.1737 8.48126L12.1761 8.48246ZM6.66331 8.72246C6.65491 8.72246 6.63931 8.74886 6.61531 8.77886C6.40651 9.10886 6.38731 9.60206 6.50251 9.75086C6.56251 9.81926 6.66331 9.85046 6.73771 9.82886C6.86971 9.77246 6.92611 9.50726 6.89371 9.41126C6.85171 9.34286 6.81691 9.33206 6.77371 9.38966C6.68131 9.57566 6.64171 9.44726 6.63571 9.34166C6.62131 9.14606 6.64051 8.96366 6.66211 8.81966C6.67411 8.74766 6.67411 8.72006 6.66211 8.72006L6.66331 8.72246ZM13.7397 9.15686C13.7241 9.15686 13.7085 9.15926 13.6917 9.16886C13.6881 9.16886 13.5429 9.26486 13.4961 9.33446C13.4673 9.35606 13.4721 9.37406 13.4793 9.41246C13.5009 9.46406 13.5393 9.44846 13.5849 9.42446C13.6449 9.41486 13.6725 9.45446 13.6689 9.52526C13.6413 9.61526 13.6809 9.64766 13.6809 9.65366C13.6809 9.65846 13.7373 9.70766 13.8045 9.66926C13.9449 9.61526 14.0325 9.56126 14.2305 9.51926C14.2821 9.51926 14.2785 9.38006 14.1969 9.37526C14.0889 9.38006 13.9929 9.38726 13.8849 9.47126C13.8189 9.48566 13.8081 9.44486 13.7925 9.40886C13.7757 9.32006 13.8309 9.25766 13.8189 9.19046C13.8213 9.19406 13.7853 9.16166 13.7385 9.15926L13.7397 9.15686ZM18.2709 9.32486L18.1749 9.33446C18.1317 9.34286 18.1173 9.36206 18.1089 9.41486C18.1125 9.49286 18.1605 9.48926 18.2109 9.52046C18.2397 9.55646 18.2589 9.59006 18.2085 9.65246C18.1605 9.69446 18.1281 9.71846 18.0801 9.76046C18.0597 9.79886 18.0441 9.85646 18.1137 9.87566C18.2397 9.91166 18.5313 9.72206 18.5313 9.71966C18.5793 9.68366 18.5625 9.61526 18.5589 9.61526C18.5301 9.58406 18.4677 9.60326 18.4269 9.59726C18.4065 9.59726 18.3429 9.58766 18.3717 9.53006C18.3981 9.49406 18.4077 9.47366 18.4257 9.42926C18.4437 9.38606 18.4257 9.35726 18.3561 9.33326C18.3201 9.32606 18.2961 9.32366 18.2685 9.32486H18.2709ZM16.5273 13.9569C16.8513 13.9725 17.1537 13.9605 17.4753 13.9761C17.5281 14.0193 17.5029 14.1201 17.4693 14.1369L17.4633 14.1393H17.4597H17.4549L17.1837 14.1321V14.1165C17.1573 14.0421 16.9773 14.0469 16.9341 14.1045V14.1081C16.9317 14.1081 16.9305 14.1117 16.9305 14.1129L16.9281 14.1189V14.1333C16.7841 14.1513 16.6581 14.1285 16.5165 14.1237C16.4745 14.0721 16.4805 13.9797 16.5285 13.9557L16.5273 13.9569Z" fill="white"/>
</svg>
