<svg width="32" height="32" viewBox="0 0 32 32" fill="none" xmlns="http://www.w3.org/2000/svg">
<path d="M16.0317 0H15.9589C7.14503 0 0 7.14713 0 15.9636V16.0364C0 24.8529 7.14503 32 15.9589 32H16.0317C24.8456 32 31.9906 24.8529 31.9906 16.0364V15.9636C31.9906 7.14713 24.8456 0 16.0317 0Z" fill="white"/>
<path d="M20.945 6.51025H11.0463C8.31155 6.51025 6.08679 8.73567 6.08679 11.4712V20.5298C6.08679 23.2653 8.31155 25.4907 11.0463 25.4907H20.945C23.6798 25.4907 25.9045 23.2653 25.9045 20.5298V11.4712C25.9045 8.73567 23.6798 6.51025 20.945 6.51025ZM7.83634 11.4712C7.83634 9.70095 9.27655 8.26031 11.0463 8.26031H20.945C22.7148 8.26031 24.155 9.70095 24.155 11.4712V20.5298C24.155 22.3 22.7148 23.7407 20.945 23.7407H11.0463C9.27655 23.7407 7.83634 22.3 7.83634 20.5298V11.4712Z" fill="black"/>
<path d="M15.9958 20.614C18.5389 20.614 20.609 18.5445 20.609 15.9995C20.609 13.4546 18.54 11.385 15.9958 11.385C13.4517 11.385 11.3827 13.4546 11.3827 15.9995C11.3827 18.5445 13.4517 20.614 15.9958 20.614ZM15.9958 13.1362C17.575 13.1362 18.8595 14.421 18.8595 16.0006C18.8595 17.5803 17.575 18.8651 15.9958 18.8651C14.4167 18.8651 13.1322 17.5803 13.1322 16.0006C13.1322 14.421 14.4167 13.1362 15.9958 13.1362Z" fill="black"/>
<path d="M21.036 12.1304C21.7208 12.1304 22.279 11.5732 22.279 10.8871C22.279 10.201 21.722 9.6438 21.036 9.6438C20.3501 9.6438 19.7931 10.201 19.7931 10.8871C19.7931 11.5732 20.3501 12.1304 21.036 12.1304Z" fill="black"/>
</svg>
