<svg width="66" height="84" viewBox="0 0 66 84" fill="none" xmlns="http://www.w3.org/2000/svg">
<path fill-rule="evenodd" clip-rule="evenodd" d="M61.5994 55.2002C58.5445 52.7059 53.9059 51.8653 48.8738 52.8941C43.2226 54.0489 39.9205 60.3237 36.7274 66.3926C34.8374 69.9848 33.0524 73.3772 30.994 75.297C30.9803 75.3096 30.9672 75.3227 30.9536 75.3363C27.9527 78.3372 23.9442 79.9895 19.6674 79.9895C15.3905 79.9895 11.3826 78.3372 8.38167 75.3363C7.89581 74.8499 7.4367 74.3263 7.01643 73.7809C6.47406 73.075 5.46249 72.9428 4.75717 73.4857C4.05134 74.0281 3.91915 75.0396 4.46202 75.745C4.96655 76.4019 5.5185 77.0305 6.10273 77.6147C9.71261 81.2246 14.5293 83.2119 19.6674 83.2119C24.7959 83.2119 29.6055 81.2322 33.2129 77.6339C35.6608 75.3414 37.5649 71.7224 39.5794 67.8931C42.4234 62.4881 45.3638 56.9 49.5196 56.0509C53.5992 55.2169 57.2595 55.8168 59.5621 57.6966C61.2205 59.0503 62.0974 61.0361 62.0974 63.4401C62.0974 68.9551 59.9582 71.8924 55.3675 72.6855C54.4907 72.8364 53.9029 73.6709 54.0537 74.5472C54.2056 75.4241 55.0381 76.0129 55.9165 75.861C60.2059 75.1204 65.3198 72.3642 65.3198 63.4401C65.3193 60.0361 64.0332 57.1865 61.5994 55.2002Z" fill="#5705BA"/>
<path fill-rule="evenodd" clip-rule="evenodd" d="M2.17898 64.2116C3.00893 64.2116 3.71375 63.5738 3.78337 62.7313C4.09113 58.9615 5.72428 55.4217 8.38161 52.7644L11.2402 49.9053L55.6904 35.4209C55.7005 35.4178 55.709 35.4128 55.7191 35.4098C55.7383 35.4027 55.757 35.3977 55.7751 35.3901C55.7918 35.3845 55.8054 35.375 55.821 35.3689C55.8629 35.3512 55.9038 35.3316 55.9441 35.3104C55.9704 35.2962 55.9961 35.2816 56.0218 35.2665C56.0602 35.2433 56.0975 35.218 56.1338 35.1918C56.157 35.1747 56.1808 35.1585 56.2025 35.1403C56.2403 35.1101 56.2751 35.0773 56.3094 35.044C56.3271 35.0268 56.3462 35.0107 56.3629 34.993C56.4083 34.9451 56.4502 34.8941 56.489 34.8412C56.4926 34.8356 56.4976 34.8311 56.5016 34.8255C56.5445 34.7665 56.5814 34.7039 56.6157 34.6399C56.6268 34.6192 56.6348 34.597 56.6449 34.5763C56.6656 34.5309 56.6868 34.4865 56.7034 34.4396C56.7135 34.4118 56.7211 34.3836 56.7292 34.3553C56.7388 34.325 56.7504 34.2953 56.7579 34.2645C56.761 34.2514 56.7615 34.2388 56.7645 34.2261C56.7705 34.1969 56.7746 34.1666 56.7796 34.1368C56.7867 34.0914 56.7922 34.047 56.7953 34.0016C56.7968 33.987 56.7998 33.9724 56.8003 33.9582L58.1545 2.39166C58.1545 2.39066 58.1545 2.38914 58.1545 2.38864C58.1555 2.35786 58.155 2.32759 58.155 2.29681C58.1545 2.28672 58.155 2.27663 58.155 2.26654C58.154 2.23324 58.1504 2.19994 58.1474 2.16614C58.1469 2.15958 58.1469 2.15252 58.1464 2.14546C58.1423 2.11367 58.1373 2.08138 58.1318 2.04909C58.1307 2.04102 58.1297 2.03345 58.1282 2.02538C58.1257 2.01075 58.1212 1.99561 58.1181 1.98048C58.1131 1.95626 58.108 1.93154 58.1015 1.90682C58.0985 1.89773 58.0954 1.88815 58.0919 1.87806C58.0838 1.8493 58.0758 1.82004 58.0657 1.79128C58.0611 1.77917 58.0561 1.76807 58.052 1.75596C58.042 1.73023 58.0324 1.704 58.0208 1.67877C58.0203 1.67726 58.0203 1.67625 58.0198 1.67473C58.0137 1.6601 58.0066 1.64699 57.9996 1.63336C57.9895 1.61167 57.9794 1.59048 57.9688 1.56929C57.9592 1.55214 57.9491 1.53498 57.939 1.51783C57.9289 1.50067 57.9188 1.48201 57.9083 1.46536C57.8972 1.4477 57.8855 1.43105 57.8739 1.4144C57.8628 1.39775 57.8522 1.38161 57.8401 1.36597C57.8285 1.34932 57.8159 1.33418 57.8033 1.31854C57.7907 1.3029 57.7786 1.28726 57.7655 1.27112C57.7529 1.25699 57.7397 1.24387 57.7271 1.22974C57.7125 1.2141 57.6979 1.19846 57.6832 1.18282C57.6711 1.17071 57.6585 1.15911 57.6459 1.14801C57.6287 1.13136 57.6121 1.11572 57.5944 1.10059C57.5823 1.0905 57.5697 1.0804 57.5571 1.07031C57.5389 1.05568 57.5198 1.04055 57.5006 1.02592C57.4875 1.01633 57.4734 1.00775 57.4602 0.998168C57.4406 0.98505 57.4219 0.970923 57.4017 0.95831C57.3851 0.94822 57.3689 0.939643 57.3528 0.930057C57.3341 0.919462 57.3164 0.908867 57.2978 0.898776C57.2766 0.887172 57.2544 0.877082 57.2322 0.866487C57.2191 0.860432 57.2065 0.853369 57.1933 0.847819C57.1918 0.847315 57.1908 0.847315 57.1893 0.846306C57.158 0.832684 57.1257 0.82007 57.0939 0.808466C57.0884 0.806953 57.0823 0.80443 57.0773 0.802412C56.934 0.751455 56.7816 0.721688 56.6263 0.71412C56.6187 0.713616 56.6106 0.713111 56.603 0.712607C56.5834 0.711598 56.5632 0.712607 56.5435 0.712607C56.5223 0.712607 56.5011 0.712607 56.4799 0.713111C56.4789 0.713111 56.4769 0.713111 56.4759 0.713111L24.9093 2.06675C24.8947 2.06776 24.8806 2.07079 24.8654 2.0718C24.8205 2.07533 24.7761 2.08088 24.7312 2.08794C24.701 2.09198 24.6707 2.09702 24.6414 2.10358C24.6288 2.1061 24.6162 2.10661 24.6026 2.10963C24.5718 2.1172 24.5425 2.12881 24.5123 2.13789C24.484 2.14647 24.4553 2.15403 24.428 2.16362C24.3811 2.18077 24.3357 2.20146 24.2913 2.22265C24.2706 2.23223 24.2484 2.24081 24.2277 2.25191C24.1636 2.28622 24.1011 2.32305 24.042 2.36593C24.0365 2.36946 24.032 2.37451 24.0264 2.37855C23.9729 2.41739 23.9225 2.45927 23.8745 2.50417C23.8564 2.52133 23.8407 2.5405 23.8231 2.55765C23.7898 2.59246 23.757 2.62728 23.7267 2.66512C23.7091 2.68681 23.6924 2.71103 23.6758 2.73373C23.649 2.77006 23.6238 2.80689 23.6006 2.84574C23.5849 2.87147 23.5713 2.8972 23.5572 2.92343C23.536 2.96379 23.5163 3.00466 23.4987 3.04654C23.4916 3.06218 23.483 3.0758 23.477 3.09245C23.4724 3.10506 23.4699 3.11818 23.4654 3.13079C23.4593 3.14643 23.4518 3.16106 23.4467 3.17721L8.96232 47.6273L6.10318 50.4865C2.90651 53.6831 0.94189 57.9388 0.571065 62.4694C0.498918 63.3564 1.15934 64.1344 2.04579 64.2065C2.09069 64.2095 2.13459 64.2116 2.17898 64.2116ZM42.3633 18.7827L54.7575 6.38851L53.7384 30.1572L42.3633 18.7827ZM16.2678 44.8777L40.0844 21.0611L52.194 33.1707L16.2678 44.8777ZM52.4781 4.10957L40.0844 16.5037L28.7099 5.12921L52.4781 4.10957ZM25.6959 6.67306L37.8055 18.7827L13.9894 42.5987L25.6959 6.67306Z" fill="#5705BA"/>
<path fill-rule="evenodd" clip-rule="evenodd" d="M2.82384 67.4023C1.93638 67.4023 1.21289 68.1253 1.21289 69.0138C1.21289 69.9013 1.93638 70.6252 2.82384 70.6252C3.7113 70.6252 4.43529 69.9013 4.43529 69.0138C4.43529 68.1253 3.7113 67.4023 2.82384 67.4023Z" fill="#5705BA"/>
</svg>
