<svg width="89" height="88" viewBox="0 0 89 88" fill="none" xmlns="http://www.w3.org/2000/svg">
<path d="M85.7501 74.25C85.7501 75.768 84.5181 77 83.0001 77C79.4856 77 77.1976 78.144 74.5521 79.4695C71.7141 80.8913 68.4994 82.5 63.7501 82.5C58.9761 82.5 55.7476 80.8858 52.8986 79.4613C50.2586 78.1413 47.9789 77 44.5001 77C41.0214 77 38.7416 78.1413 36.1016 79.4613C33.2526 80.8858 30.0241 82.5 25.2501 82.5C20.5009 82.5 17.2861 80.8913 14.4481 79.4695C11.8026 78.144 9.51462 77 6.00012 77C4.48212 77 3.25012 75.768 3.25012 74.25C3.25012 72.732 4.48212 71.5 6.00012 71.5C10.8154 71.5 14.0549 73.1225 16.9121 74.5525C19.5356 75.8643 21.8016 77 25.2501 77C28.7261 77 31.0031 75.8588 33.6431 74.5415C36.4921 73.1143 39.7234 71.5 44.5001 71.5C49.2769 71.5 52.5081 73.1143 55.3571 74.5415C57.9971 75.8588 60.2741 77 63.7501 77C67.1986 77 69.4646 75.8643 72.0881 74.5525C74.9454 73.1225 78.1849 71.5 83.0001 71.5C84.5181 71.5 85.7501 72.732 85.7501 74.25Z" fill="#5705BA"/>
<path d="M85.7501 60.5C85.7501 62.018 84.5181 63.25 83.0001 63.25C79.4856 63.25 77.1976 64.394 74.5521 65.7195C71.7141 67.1413 68.4994 68.75 63.7501 68.75C58.9761 68.75 55.7476 67.1358 52.8986 65.7113C50.2586 64.3913 47.9789 63.25 44.5001 63.25C41.0214 63.25 38.7416 64.3913 36.1016 65.7113C33.2526 67.1358 30.0241 68.75 25.2501 68.75C20.5009 68.75 17.2861 67.1413 14.4481 65.7195C11.8026 64.394 9.51462 63.25 6.00012 63.25C4.48212 63.25 3.25012 62.018 3.25012 60.5C3.25012 58.982 4.48212 57.75 6.00012 57.75C10.8154 57.75 14.0549 59.3725 16.9121 60.8025C19.5356 62.1143 21.8016 63.25 25.2501 63.25C28.7261 63.25 31.0031 62.1088 33.6431 60.7915C36.4921 59.3643 39.7234 57.75 44.5001 57.75C49.2769 57.75 52.5081 59.3643 55.3571 60.7915C57.9971 62.1088 60.2741 63.25 63.7501 63.25C67.1986 63.25 69.4646 62.1143 72.0881 60.8025C74.9454 59.3725 78.1849 57.75 83.0001 57.75C84.5181 57.75 85.7501 58.982 85.7501 60.5Z" fill="#5705BA"/>
<path d="M3.25012 46.75C3.25012 45.232 4.48212 44 6.00012 44C15.8671 44 19.5851 37.0288 24.2904 28.2013C29.6831 18.0868 36.3931 5.5 55.5001 5.5C64.9051 5.5 72.0001 11.4098 72.0001 19.25C72.0001 25.5255 66.9951 30.25 63.7501 30.25C62.2321 30.25 61.0001 29.018 61.0001 27.5C61.0001 26.719 60.8214 25.6135 59.2731 25.036C57.2161 24.2715 54.3121 24.9645 52.9399 26.5485C49.7526 30.2308 49.1311 36.3138 51.4301 41.3408C53.7896 46.5053 58.6571 49.4698 64.7841 49.4698C67.7734 49.4698 69.8744 48.378 72.3054 47.113C75.1076 45.6555 78.2894 44 83.0001 44C84.5181 44 85.7501 45.232 85.7501 46.75C85.7501 48.268 84.5181 49.5 83.0001 49.5C79.6314 49.5 77.4121 50.655 74.8409 51.9915C72.1569 53.3885 69.1154 54.9698 64.7814 54.9698C56.4104 54.9698 49.7196 50.8365 46.4251 43.626C43.2131 36.597 44.1591 28.2865 48.7791 22.9488C51.6501 19.635 56.9906 18.3178 61.1926 19.8825C62.9554 20.5398 64.3414 21.648 65.2544 23.0725C65.9254 22.1403 66.5001 20.8505 66.5001 19.25C66.5001 14.5475 61.7701 11 55.5001 11C39.6931 11 34.5699 20.6113 29.1441 30.789C24.2409 39.9878 19.1699 49.5 6.00012 49.5C4.48212 49.5 3.25012 48.268 3.25012 46.75Z" fill="#5705BA"/>
</svg>
