<svg width="49" height="49" viewBox="0 0 49 49" fill="none" xmlns="http://www.w3.org/2000/svg">
<path d="M45.5952 33.8132C41.1565 33.8132 37.5219 30.4064 37.1592 26.0625C39.8263 24.7844 42.2861 23.0492 44.4395 20.8962C45.5416 19.7937 45.5416 18.0071 44.4395 16.905C43.3371 15.8026 41.5505 15.8026 40.448 16.905C39.4169 17.9362 38.3035 18.8354 37.1287 19.6041V13.2112C37.1287 6.14541 31.4005 0.417236 24.3347 0.417236C17.2689 0.417236 11.5407 6.14541 11.5407 13.2112V19.6041C10.3659 18.8354 9.25248 17.9362 8.22135 16.905C7.11893 15.8026 5.33227 15.8026 4.22985 16.905C3.1278 18.0071 3.1278 19.7941 4.22985 20.8962C6.38325 23.0492 8.84312 24.7844 11.5106 26.0625C11.1475 30.4064 7.51286 33.8132 3.07415 33.8132C1.51533 33.8132 0.251953 35.0766 0.251953 36.6354C0.251953 38.1942 1.51533 39.4576 3.07415 39.4576C4.26917 39.4576 5.44619 39.3827 6.6019 39.239V42.8288C15.4683 42.8288 15.4683 48.5827 24.3347 48.5827C33.2011 48.5827 33.2011 42.8288 42.0675 42.8288V39.239C43.2232 39.3827 44.4002 39.4576 45.5952 39.4576C47.1541 39.4576 48.4174 38.1942 48.4174 36.6354C48.4174 35.0766 47.1541 33.8132 45.5952 33.8132Z" fill="white"/>
</svg>
