<svg width="40" height="52" viewBox="0 0 40 52" fill="none" xmlns="http://www.w3.org/2000/svg">
<path d="M1.10799 39.0965C2.3179 44.9028 7.03141 49.6143 12.8348 50.8232C13.9126 51.0474 14.9954 51.1575 16.0682 51.1575C19.5808 51.1575 22.9864 49.9726 25.7405 47.7349C29.3361 44.8108 31.3986 40.4775 31.3986 35.8481V14.8849C33.8712 16.3462 36.7428 17.2001 39.817 17.2001V9.00205C35.1754 9.00205 31.3986 5.22517 31.3986 0.58374H23.2005C23.2005 0.658048 23.2106 0.729808 23.2116 0.803899H23.2005V35.8481C23.2005 37.9997 22.2418 40.0131 20.5686 41.3742C18.8733 42.7512 16.7177 43.2595 14.507 42.7972C11.8481 42.2428 9.68844 40.0833 9.13405 37.4232C8.67269 35.2115 9.17803 33.06 10.558 31.3627C11.9181 29.6894 13.9326 28.7307 16.0843 28.7307V20.5326C11.4538 20.5326 7.12047 22.5941 4.19729 26.1909C1.27413 29.7875 0.148335 34.491 1.10799 39.0965Z" fill="white"/>
</svg>
